<svg width="223" height="128" viewBox="0 0 223 128" fill="none" xmlns="http://www.w3.org/2000/svg">
<path d="M198.834 113.295L199.334 113.317L199.334 113.317L198.834 113.295ZM221.604 117.821L222.102 117.86L222.102 117.86L221.604 117.821ZM211.004 126.682C204.159 126.682 199.036 120.273 199.334 113.317L198.335 113.274C198.018 120.678 203.476 127.682 211.004 127.682V126.682ZM221.105 117.783C220.708 122.929 216.225 126.682 211.004 126.682V127.682C216.687 127.682 221.66 123.585 222.102 117.86L221.105 117.783ZM221.406 109.966C221.406 112.596 221.304 115.202 221.105 117.783L222.102 117.86C222.303 115.254 222.406 112.621 222.406 109.966H221.406ZM197.756 44.9662C212.565 62.8252 221.406 85.409 221.406 109.966H222.406C222.406 85.1632 213.475 62.3563 198.526 44.3279L197.756 44.9662ZM199.406 109.966C199.406 91.8144 193.112 74.7739 182.342 60.9344L181.553 61.5485C192.194 75.2228 198.406 92.0496 198.406 109.966H199.406ZM199.334 113.317C199.382 112.204 199.406 111.088 199.406 109.966H198.406C198.406 111.073 198.382 112.176 198.335 113.274L199.334 113.317ZM181.772 44.283C177.308 49.069 177.584 56.4483 181.553 61.5485L182.342 60.9344C178.623 56.1557 178.429 49.3338 182.503 44.965L181.772 44.283ZM198.526 44.3279C194.188 39.096 186.355 39.3681 181.772 44.283L182.503 44.965C186.728 40.4345 193.851 40.2561 197.756 44.9662L198.526 44.3279Z" fill="#534E4E"/>
<path d="M182.808 44.1551L202.808 50.8499M208.308 59.4577L179.308 51.3282M212.808 67.5872L180.308 58.023M217.808 80.9769L186.808 67.5872M220.308 92.9321L192.308 78.1077M221.308 99.1488L195.808 87.6718M221.808 108.713L197.808 97.7141M199.308 104.887L221.308 117.799M198.808 116.364L215.808 125.928" stroke="#625A5A" stroke-width="0.8"/>
<path fill-rule="evenodd" clip-rule="evenodd" d="M181.609 40.5696C177.245 45.8058 169.307 45.9845 163.963 41.7534C149.133 30.011 130.385 23 110 23C61.9512 23 23 61.9512 23 110C23 111.432 23.0346 112.857 23.1031 114.272C23.448 121.405 18.1503 128 11.0095 128C5.50476 128 0.746443 124.016 0.325628 118.527C0.109868 115.713 0 112.869 0 110C0 49.2487 49.2487 0 110 0C136.886 0 161.519 9.64582 180.628 25.6656C185.109 29.4228 185.353 36.077 181.609 40.5696Z" fill="black"/>
</svg>
